<svg width="34" height="34" viewBox="0 0 34 34" fill="none" xmlns="http://www.w3.org/2000/svg">
<path d="M11.0502 2.83337H22.9502C27.4835 2.83337 31.1668 6.51671 31.1668 11.05V22.95C31.1668 25.1292 30.3011 27.2192 28.7602 28.7601C27.2193 30.301 25.1294 31.1667 22.9502 31.1667H11.0502C6.51683 31.1667 2.8335 27.4834 2.8335 22.95V11.05C2.8335 8.87085 3.69918 6.7809 5.2401 5.23998C6.78103 3.69906 8.87097 2.83337 11.0502 2.83337ZM10.7668 5.66671C9.41423 5.66671 8.11702 6.20403 7.16059 7.16046C6.20415 8.1169 5.66683 9.4141 5.66683 10.7667V23.2334C5.66683 26.0525 7.94766 28.3334 10.7668 28.3334H23.2335C24.5861 28.3334 25.8833 27.7961 26.8397 26.8396C27.7962 25.8832 28.3335 24.586 28.3335 23.2334V10.7667C28.3335 7.94754 26.0527 5.66671 23.2335 5.66671H10.7668ZM24.4377 7.79171C24.9073 7.79171 25.3577 7.97828 25.6898 8.31037C26.0219 8.64247 26.2085 9.09289 26.2085 9.56254C26.2085 10.0322 26.0219 10.4826 25.6898 10.8147C25.3577 11.1468 24.9073 11.3334 24.4377 11.3334C23.968 11.3334 23.5176 11.1468 23.1855 10.8147C22.8534 10.4826 22.6668 10.0322 22.6668 9.56254C22.6668 9.09289 22.8534 8.64247 23.1855 8.31037C23.5176 7.97828 23.968 7.79171 24.4377 7.79171ZM17.0002 9.91671C18.8788 9.91671 20.6805 10.663 22.0088 11.9914C23.3372 13.3198 24.0835 15.1214 24.0835 17C24.0835 18.8787 23.3372 20.6803 22.0088 22.0087C20.6805 23.3371 18.8788 24.0834 17.0002 24.0834C15.1215 24.0834 13.3199 23.3371 11.9915 22.0087C10.6631 20.6803 9.91683 18.8787 9.91683 17C9.91683 15.1214 10.6631 13.3198 11.9915 11.9914C13.3199 10.663 15.1215 9.91671 17.0002 9.91671ZM17.0002 12.75C15.873 12.75 14.792 13.1978 13.995 13.9948C13.1979 14.7919 12.7502 15.8729 12.7502 17C12.7502 18.1272 13.1979 19.2082 13.995 20.0052C14.792 20.8023 15.873 21.25 17.0002 21.25C18.1273 21.25 19.2083 20.8023 20.0054 20.0052C20.8024 19.2082 21.2502 18.1272 21.2502 17C21.2502 15.8729 20.8024 14.7919 20.0054 13.9948C19.2083 13.1978 18.1273 12.75 17.0002 12.75Z" fill="#FAFAFA"/>
</svg>
