<svg width="34" height="34" viewBox="0 0 34 34" fill="none" xmlns="http://www.w3.org/2000/svg">
<path d="M17.0002 2.83337C9.18016 2.83337 2.8335 9.18004 2.8335 17C2.8335 24.82 9.18016 31.1667 17.0002 31.1667C24.8202 31.1667 31.1668 24.82 31.1668 17C31.1668 9.18004 24.8202 2.83337 17.0002 2.83337ZM23.5735 12.4667C23.361 14.705 22.4402 20.145 21.9727 22.6525C21.7743 23.715 21.3777 24.0692 21.0093 24.1117C20.1877 24.1825 19.5643 23.5734 18.771 23.0492C17.5243 22.2275 16.816 21.7175 15.6118 20.9242C14.2093 20.0034 15.116 19.4934 15.9235 18.6717C16.136 18.4592 19.7627 15.1584 19.8335 14.8609C19.8433 14.8158 19.842 14.769 19.8297 14.7246C19.8173 14.6802 19.7943 14.6394 19.7627 14.6059C19.6777 14.535 19.5643 14.5634 19.4652 14.5775C19.3377 14.6059 17.3543 15.9234 13.4868 18.53C12.9202 18.9125 12.4102 19.1109 11.9568 19.0967C11.4468 19.0825 10.4835 18.8134 9.761 18.5725C8.8685 18.2892 8.17433 18.1334 8.231 17.6375C8.25933 17.3825 8.6135 17.1275 9.27933 16.8584C13.416 15.0592 16.1643 13.8692 17.5385 13.3025C21.4768 11.6592 22.2843 11.3759 22.8227 11.3759C22.936 11.3759 23.2052 11.4042 23.3752 11.5459C23.5168 11.6592 23.5593 11.815 23.5735 11.9284C23.5593 12.0134 23.5877 12.2684 23.5735 12.4667Z" fill="#FAFAFA"/>
</svg>
