<svg width="34" height="34" viewBox="0 0 34 34" fill="none" xmlns="http://www.w3.org/2000/svg">
<path d="M29.6085 2.83337H4.39183C3.97853 2.83337 3.58217 2.99756 3.28992 3.2898C2.99768 3.58204 2.8335 3.97841 2.8335 4.39171V29.6084C2.8335 30.0217 2.99768 30.418 3.28992 30.7103C3.58217 31.0025 3.97853 31.1667 4.39183 31.1667H17.9635V20.1875H14.2802V15.9375H17.9635V12.75C17.8872 12.0017 17.9755 11.2457 18.2223 10.5351C18.4691 9.82455 18.8684 9.17656 19.3922 8.63662C19.9159 8.09668 20.5514 7.67787 21.2542 7.40954C21.9569 7.14122 22.7098 7.0299 23.4602 7.08337C24.5628 7.07659 25.6649 7.13335 26.761 7.25337V11.0784H24.5085C22.7235 11.0784 22.3835 11.9284 22.3835 13.1609V15.895H26.6335L26.081 20.145H22.3835V31.1667H29.6085C29.8131 31.1667 30.0158 31.1264 30.2048 31.0481C30.3939 30.9698 30.5657 30.855 30.7104 30.7103C30.8551 30.5656 30.9699 30.3938 31.0482 30.2047C31.1265 30.0157 31.1668 29.813 31.1668 29.6084V4.39171C31.1668 4.18706 31.1265 3.98442 31.0482 3.79536C30.9699 3.60629 30.8551 3.4345 30.7104 3.2898C30.5657 3.14509 30.3939 3.03031 30.2048 2.952C30.0158 2.87368 29.8131 2.83337 29.6085 2.83337Z" fill="#FAFAFA"/>
</svg>
